# xmcd CD database file
#
# Track frame offsets:
#	150
#	1725
#	52868
#	88671
#	115357
#	138345
#	139845
#	177349
#	180059
#
# Disc length: 3192 seconds
#
# Revision: 0
# Processed by: cddbd v1.5.1PL0 Copyright (c) Steve Scherf et al.
# Submitted via: CDex 1.51
#
DISCID=680c7609
DTITLE=Jean-Michel Jarre - Sunrise Concert
DYEAR=2000
DGENRE=New Age
TTITLE0=Intro
TTITLE1=Ethnicolor
TTITLE2=Oxygene 7
TTITLE3=Cest La Vie
TTITLE4=The Sun
TTITLE5=The First Sunrise
TTITLE6=Hey Gagarin
TTITLE7=Waiting
TTITLE8=El Dorado
EXTD=YEAR: 2000
EXTT0=
EXTT1=
EXTT2=
EXTT3=
EXTT4=
EXTT5=
EXTT6=
EXTT7=
EXTT8=
PLAYORDER=
